<svg xmlns="http://www.w3.org/2000/svg" xmlns:xlink="http://www.w3.org/1999/xlink" width="280" zoomAndPan="magnify" viewBox="0 0 210 209.999996" height="280" preserveAspectRatio="xMidYMid meet" version="1.0"><defs><clipPath id="722322474c"><path d="M 18 122.453125 L 197 122.453125 L 197 198 L 18 198 Z M 18 122.453125 " clip-rule="nonzero"/></clipPath></defs><g clip-path="url(#722322474c)"><path fill="#737373" d="M 188 162.09375 L 178.5625 138.734375 L 167 138.734375 L 167 137.792969 C 167 135.90625 165.585938 134.488281 163.695312 134.488281 C 161.808594 134.488281 160.394531 135.90625 160.394531 137.792969 L 160.394531 138.734375 L 143.875 138.734375 L 137.035156 185.691406 L 129.484375 185.691406 L 137.503906 130.949219 L 155.4375 130.949219 L 155.4375 124.578125 L 128.066406 124.578125 L 128.066406 136.375 L 29.675781 136.375 L 29.675781 122.453125 L 25.425781 122.453125 L 18.347656 147.464844 L 18.347656 197.015625 L 35.574219 197.015625 C 36.515625 190.410156 42.179688 185.21875 49.023438 185.21875 C 55.867188 185.21875 61.527344 190.410156 62.472656 197.015625 L 70.496094 197.015625 C 71.4375 190.410156 77.101562 185.21875 83.945312 185.21875 C 90.785156 185.21875 96.449219 190.410156 97.394531 197.015625 L 154.023438 197.015625 C 154.964844 190.410156 160.628906 185.21875 167.472656 185.21875 C 174.316406 185.21875 179.976562 190.410156 180.921875 197.015625 L 196.964844 197.015625 L 196.964844 162.09375 C 196.964844 162.09375 188 162.09375 188 162.09375 Z M 149.304688 162.09375 L 151.898438 145.34375 L 172.664062 145.34375 L 179.269531 162.09375 Z M 149.304688 162.09375 " fill-opacity="1" fill-rule="nonzero"/></g><path fill="#737373" d="M 48.785156 187.578125 C 43.359375 187.578125 38.875 191.589844 37.933594 196.78125 C 37.695312 197.488281 37.460938 197.960938 37.460938 198.667969 C 37.460938 204.804688 42.417969 209.992188 48.785156 209.992188 C 55.15625 209.992188 60.113281 205.039062 60.113281 198.667969 C 60.113281 197.960938 59.875 197.253906 59.640625 196.78125 C 58.695312 191.589844 54.449219 187.578125 48.785156 187.578125 Z M 48.785156 187.578125 " fill-opacity="1" fill-rule="nonzero"/><path fill="#737373" d="M 83.707031 187.578125 C 78.28125 187.578125 73.796875 191.589844 72.855469 196.78125 C 72.617188 197.488281 72.382812 197.960938 72.382812 198.667969 C 72.382812 204.804688 77.335938 209.992188 83.707031 209.992188 C 90.078125 209.992188 95.035156 205.039062 95.035156 198.667969 C 95.035156 197.960938 94.796875 197.253906 94.5625 196.78125 C 93.617188 191.589844 89.136719 187.578125 83.707031 187.578125 Z M 83.707031 187.578125 " fill-opacity="1" fill-rule="nonzero"/><path fill="#737373" d="M 167.234375 187.578125 C 161.808594 187.578125 157.324219 191.589844 156.382812 196.78125 C 156.144531 197.488281 155.910156 197.960938 155.910156 198.667969 C 155.910156 204.804688 160.867188 209.992188 167.234375 209.992188 C 173.605469 209.992188 178.5625 205.039062 178.5625 198.667969 C 178.5625 197.960938 178.324219 197.253906 178.089844 196.78125 C 177.144531 191.589844 172.898438 187.578125 167.234375 187.578125 Z M 167.234375 187.578125 " fill-opacity="1" fill-rule="nonzero"/></svg>