<svg xmlns="http://www.w3.org/2000/svg" xmlns:xlink="http://www.w3.org/1999/xlink" width="280" zoomAndPan="magnify" viewBox="0 0 210 209.999996" height="280" preserveAspectRatio="xMidYMid meet" version="1.0"><defs><clipPath id="aa776f22ba"><path d="M 98 52.617188 L 129 52.617188 L 129 83 L 98 83 Z M 98 52.617188 " clip-rule="nonzero"/></clipPath></defs><g clip-path="url(#aa776f22ba)"><path fill="#40ffaf" d="M 128.542969 67.519531 C 128.542969 68.5 128.449219 69.46875 128.257812 70.429688 C 128.066406 71.386719 127.785156 72.320312 127.410156 73.222656 C 127.035156 74.128906 126.574219 74.988281 126.03125 75.800781 C 125.488281 76.613281 124.871094 77.367188 124.179688 78.058594 C 123.488281 78.75 122.734375 79.367188 121.921875 79.914062 C 121.105469 80.457031 120.25 80.914062 119.34375 81.289062 C 118.441406 81.664062 117.507812 81.945312 116.546875 82.136719 C 115.589844 82.328125 114.621094 82.421875 113.640625 82.421875 C 112.664062 82.421875 111.695312 82.328125 110.734375 82.136719 C 109.773438 81.945312 108.84375 81.664062 107.9375 81.289062 C 107.035156 80.914062 106.175781 80.457031 105.363281 79.914062 C 104.546875 79.367188 103.796875 78.75 103.105469 78.058594 C 102.410156 77.367188 101.792969 76.613281 101.25 75.800781 C 100.707031 74.988281 100.246094 74.128906 99.875 73.222656 C 99.5 72.320312 99.214844 71.386719 99.023438 70.429688 C 98.835938 69.46875 98.738281 68.5 98.738281 67.519531 C 98.738281 66.542969 98.835938 65.574219 99.023438 64.613281 C 99.214844 63.652344 99.5 62.722656 99.875 61.816406 C 100.246094 60.914062 100.707031 60.054688 101.25 59.242188 C 101.792969 58.429688 102.410156 57.675781 103.105469 56.984375 C 103.796875 56.292969 104.546875 55.671875 105.363281 55.128906 C 106.175781 54.585938 107.035156 54.128906 107.9375 53.753906 C 108.84375 53.378906 109.773438 53.097656 110.734375 52.90625 C 111.695312 52.714844 112.664062 52.617188 113.640625 52.617188 C 114.621094 52.617188 115.589844 52.714844 116.546875 52.90625 C 117.507812 53.097656 118.441406 53.378906 119.34375 53.753906 C 120.25 54.128906 121.105469 54.585938 121.921875 55.128906 C 122.734375 55.671875 123.488281 56.292969 124.179688 56.984375 C 124.871094 57.675781 125.488281 58.429688 126.03125 59.242188 C 126.574219 60.054688 127.035156 60.914062 127.410156 61.816406 C 127.785156 62.722656 128.066406 63.652344 128.257812 64.613281 C 128.449219 65.574219 128.542969 66.542969 128.542969 67.519531 Z M 128.542969 67.519531 " fill-opacity="1" fill-rule="nonzero"/></g><path fill="#40ffaf" d="M 148.410156 131.15625 C 145.519531 129.832031 126.308594 120.292969 126.308594 120.292969 C 126.308594 120.292969 119.476562 105.773438 115.964844 97.820312 C 112.664062 90.328125 110.265625 88.386719 105.539062 88.386719 C 103.792969 88.386719 100.164062 88.386719 98.273438 88.386719 C 94.453125 88.386719 93.058594 89.78125 90.726562 91.085938 L 71.066406 107.824219 C 69.328125 108.824219 68.230469 110.296875 67.550781 112.394531 L 63.34375 140.730469 C 62.738281 145.246094 65.113281 147.15625 67.8125 147.714844 C 70 148.167969 73.308594 147.066406 73.957031 143.894531 C 74.496094 141.28125 78.472656 118.113281 78.472656 118.113281 L 91.3125 108.257812 C 89.199219 118.082031 87.050781 128.867188 86.332031 132.507812 C 85.113281 138.765625 88.242188 143.53125 90.691406 147.238281 C 92.9375 150.636719 121.980469 196.410156 125.8125 201.394531 C 129.648438 206.378906 133.128906 208.839844 138.480469 205.863281 C 142.953125 203.378906 142.207031 197.667969 139.722656 193.449219 C 137.234375 189.226562 107.929688 141.539062 107.929688 141.539062 L 112.859375 120.304688 C 112.859375 120.304688 116.265625 125.144531 118.023438 127.882812 C 118.863281 129.1875 119.726562 129.6875 122.027344 130.957031 C 124.730469 132.449219 137.859375 138.410156 141.847656 140.191406 C 145.382812 141.773438 149.78125 142.378906 151.554688 139.25 C 153.324219 136.121094 151.066406 132.371094 148.410156 131.15625 Z M 148.410156 131.15625 " fill-opacity="1" fill-rule="nonzero"/><path fill="#40ffaf" d="M 83.585938 150.414062 L 77.625 171.34375 C 77.625 171.34375 65.242188 189.269531 61.796875 194.289062 C 59.21875 198.054688 57.269531 202.652344 61.695312 206 C 66.664062 209.757812 70.636719 204.863281 73.214844 201.964844 C 75.574219 199.308594 85.160156 185.902344 87.878906 182.480469 C 89.683594 180.203125 90.683594 178.277344 91.453125 176.363281 C 91.96875 175.082031 93.917969 169.769531 95.164062 166.347656 Z M 83.585938 150.414062 " fill-opacity="1" fill-rule="nonzero"/></svg>